<?xml version="1.0" encoding="UTF-8" standalone="no"?>
<!DOCTYPE svg PUBLIC "-//W3C//DTD SVG 1.1//EN" "http://www.w3.org/Graphics/SVG/1.1/DTD/svg11.dtd">
<svg width="100%" height="100%" viewBox="0 0 800 800" version="1.1" xmlns="http://www.w3.org/2000/svg" xmlns:xlink="http://www.w3.org/1999/xlink" xml:space="preserve" xmlns:serif="http://www.serif.com/" style="fill-rule:evenodd;clip-rule:evenodd;stroke-linejoin:round;stroke-miterlimit:2;">
    <g transform="matrix(1,0,0,1,-4737.53,-182.782)">
        <g transform="matrix(1,0,0,1,3805.99,0)">
            <g transform="matrix(2.34089,0,0,2.34089,240.331,-3297.13)">
                <g transform="matrix(0.651393,0,0,0.35069,-202.488,1082.76)">
                    <rect x="764.153" y="1151.48" width="524.646" height="974.51" style="fill:rgb(2,19,0);"/>
                </g>
                <g transform="matrix(1.46686,0,0,1.46686,-1354.78,-606.644)">
                    <g transform="matrix(187.5,0,0,187.5,1187.73,1586.62)">
                        <path d="M0.515,-0.12L0.553,-0.12L0.553,-0L0.407,-0L0.407,-0.069C0.369,-0.015 0.314,0.011 0.242,0.011C0.181,0.011 0.128,-0.012 0.085,-0.057C0.041,-0.103 0.019,-0.161 0.019,-0.23C0.019,-0.299 0.041,-0.357 0.085,-0.403C0.129,-0.448 0.181,-0.471 0.242,-0.471C0.315,-0.471 0.37,-0.446 0.407,-0.395L0.407,-0.46L0.515,-0.46L0.515,-0.12ZM0.268,-0.121C0.3,-0.121 0.326,-0.131 0.345,-0.152C0.364,-0.173 0.374,-0.199 0.374,-0.231C0.374,-0.262 0.364,-0.288 0.345,-0.308C0.326,-0.329 0.3,-0.339 0.268,-0.339C0.237,-0.339 0.212,-0.329 0.193,-0.308C0.173,-0.288 0.163,-0.262 0.163,-0.231C0.163,-0.199 0.173,-0.173 0.192,-0.152C0.212,-0.131 0.237,-0.121 0.268,-0.121Z" style="fill:rgb(15,237,39);fill-rule:nonzero;"/>
                    </g>
                </g>
            </g>
        </g>
    </g>
</svg>
