<?xml version="1.0" encoding="UTF-8" standalone="no"?>
<!DOCTYPE svg PUBLIC "-//W3C//DTD SVG 1.1//EN" "http://www.w3.org/Graphics/SVG/1.1/DTD/svg11.dtd">
<svg width="100%" height="100%" viewBox="0 0 2918 583" version="1.1" xmlns="http://www.w3.org/2000/svg" xmlns:xlink="http://www.w3.org/1999/xlink" xml:space="preserve" xmlns:serif="http://www.serif.com/" style="fill-rule:evenodd;clip-rule:evenodd;stroke-linejoin:round;stroke-miterlimit:2;">
    <g transform="matrix(1,0,0,1,-4101.27,-896.074)">
        <g transform="matrix(1,0,0,1,3805.99,159.566)">
            <g transform="matrix(1.23584,0,0,1.23584,-146.607,536.085)">
                <g transform="matrix(534.789,0,0,534.789,351.55,528.015)">
                    <path d="M0.44,-0.12L0.478,-0.12L0.478,-0L0.26,-0L0.26,-0.12L0.293,-0.12L0.293,-0.287C0.293,-0.303 0.289,-0.316 0.281,-0.325C0.272,-0.334 0.261,-0.339 0.246,-0.339C0.231,-0.339 0.219,-0.334 0.21,-0.325C0.201,-0.316 0.196,-0.304 0.196,-0.289L0.196,-0.12L0.233,-0.12L0.233,-0L0.011,-0L0.011,-0.12L0.05,-0.12L0.05,-0.564L0.011,-0.564L0.011,-0.684L0.194,-0.684L0.194,-0.435C0.222,-0.459 0.257,-0.471 0.296,-0.471C0.34,-0.471 0.376,-0.457 0.401,-0.429C0.427,-0.4 0.44,-0.363 0.44,-0.316L0.44,-0.12Z" style="fill:white;fill-rule:nonzero;"/>
                </g>
                <g transform="matrix(534.789,0,0,534.789,611.372,528.015)">
                    <path d="M0.515,-0.12L0.553,-0.12L0.553,-0L0.407,-0L0.407,-0.069C0.369,-0.015 0.314,0.011 0.242,0.011C0.181,0.011 0.128,-0.012 0.085,-0.057C0.041,-0.103 0.019,-0.161 0.019,-0.23C0.019,-0.299 0.041,-0.357 0.085,-0.403C0.129,-0.448 0.181,-0.471 0.242,-0.471C0.315,-0.471 0.37,-0.446 0.407,-0.395L0.407,-0.46L0.515,-0.46L0.515,-0.12ZM0.268,-0.121C0.3,-0.121 0.326,-0.131 0.345,-0.152C0.364,-0.173 0.374,-0.199 0.374,-0.231C0.374,-0.262 0.364,-0.288 0.345,-0.308C0.326,-0.329 0.3,-0.339 0.268,-0.339C0.237,-0.339 0.212,-0.329 0.193,-0.308C0.173,-0.288 0.163,-0.262 0.163,-0.231C0.163,-0.199 0.173,-0.173 0.192,-0.152C0.212,-0.131 0.237,-0.121 0.268,-0.121Z" style="fill:white;fill-rule:nonzero;"/>
                </g>
                <g transform="matrix(534.789,0,0,534.789,911.668,528.015)">
                    <path d="M0.479,-0.46L0.479,-0.34L0.44,-0.34L0.316,0.005L0.169,0.005L0.046,-0.34L0.007,-0.34L0.007,-0.46L0.221,-0.46L0.221,-0.34L0.189,-0.34L0.243,-0.128L0.296,-0.34L0.264,-0.34L0.264,-0.46L0.479,-0.46Z" style="fill:white;fill-rule:nonzero;"/>
                </g>
                <g transform="matrix(534.789,0,0,534.789,1170.97,528.015)">
                    <path d="M0.266,-0.112C0.316,-0.112 0.351,-0.129 0.371,-0.164L0.502,-0.164C0.488,-0.11 0.46,-0.067 0.419,-0.036C0.378,-0.004 0.325,0.011 0.258,0.011C0.189,0.011 0.132,-0.012 0.087,-0.058C0.042,-0.105 0.019,-0.162 0.019,-0.23C0.019,-0.297 0.042,-0.354 0.089,-0.401C0.136,-0.448 0.193,-0.471 0.261,-0.471C0.33,-0.471 0.387,-0.448 0.433,-0.402C0.479,-0.355 0.502,-0.299 0.502,-0.232C0.502,-0.224 0.501,-0.214 0.5,-0.199L0.159,-0.199C0.164,-0.172 0.175,-0.15 0.194,-0.135C0.213,-0.12 0.237,-0.112 0.266,-0.112ZM0.265,-0.357C0.21,-0.357 0.176,-0.331 0.162,-0.28L0.366,-0.28C0.352,-0.331 0.319,-0.357 0.265,-0.357Z" style="fill:white;fill-rule:nonzero;"/>
                </g>
                <g transform="matrix(534.789,0,0,534.789,1450.11,528.015)">
                    <path d="M0.515,-0.12L0.553,-0.12L0.553,-0L0.407,-0L0.407,-0.069C0.369,-0.015 0.314,0.011 0.242,0.011C0.181,0.011 0.128,-0.012 0.085,-0.057C0.041,-0.103 0.019,-0.161 0.019,-0.23C0.019,-0.299 0.041,-0.357 0.085,-0.403C0.129,-0.448 0.181,-0.471 0.242,-0.471C0.315,-0.471 0.37,-0.446 0.407,-0.395L0.407,-0.46L0.515,-0.46L0.515,-0.12ZM0.268,-0.121C0.3,-0.121 0.326,-0.131 0.345,-0.152C0.364,-0.173 0.374,-0.199 0.374,-0.231C0.374,-0.262 0.364,-0.288 0.345,-0.308C0.326,-0.329 0.3,-0.339 0.268,-0.339C0.237,-0.339 0.212,-0.329 0.193,-0.308C0.173,-0.288 0.163,-0.262 0.163,-0.231C0.163,-0.199 0.173,-0.173 0.192,-0.152C0.212,-0.131 0.237,-0.121 0.268,-0.121Z" style="fill:rgb(15,237,39);fill-rule:nonzero;"/>
                </g>
                <g transform="matrix(534.789,0,0,534.789,1750.41,528.015)">
                    <path d="M0.212,0.012C0.091,0.012 0.026,-0.041 0.015,-0.147L0.142,-0.147C0.152,-0.111 0.176,-0.093 0.213,-0.093C0.247,-0.093 0.264,-0.104 0.264,-0.127C0.264,-0.14 0.256,-0.151 0.24,-0.158C0.224,-0.166 0.204,-0.173 0.181,-0.178C0.158,-0.184 0.135,-0.191 0.113,-0.2C0.09,-0.209 0.07,-0.224 0.054,-0.245C0.038,-0.267 0.03,-0.295 0.03,-0.329C0.03,-0.37 0.045,-0.404 0.077,-0.431C0.108,-0.458 0.153,-0.471 0.21,-0.471C0.267,-0.471 0.31,-0.457 0.341,-0.429C0.371,-0.4 0.388,-0.362 0.392,-0.315L0.265,-0.315C0.256,-0.349 0.237,-0.366 0.206,-0.366C0.178,-0.366 0.164,-0.355 0.164,-0.334C0.164,-0.323 0.17,-0.313 0.182,-0.305C0.193,-0.298 0.208,-0.292 0.225,-0.288C0.242,-0.284 0.261,-0.278 0.282,-0.271C0.303,-0.264 0.322,-0.255 0.339,-0.246C0.357,-0.237 0.371,-0.222 0.383,-0.202C0.394,-0.182 0.4,-0.158 0.4,-0.13C0.4,-0.086 0.384,-0.051 0.351,-0.026C0.318,-0 0.272,0.012 0.212,0.012Z" style="fill:white;fill-rule:nonzero;"/>
                </g>
                <g transform="matrix(534.789,0,0,534.789,1974.98,528.015)">
                    <path d="M0.323,-0.471C0.388,-0.471 0.441,-0.449 0.483,-0.404C0.525,-0.358 0.546,-0.301 0.546,-0.23C0.546,-0.161 0.524,-0.103 0.48,-0.057C0.437,-0.012 0.384,0.011 0.323,0.011C0.274,0.011 0.231,-0.003 0.196,-0.032L0.196,0.077L0.263,0.077L0.263,0.197L0.011,0.197L0.011,0.077L0.05,0.077L0.05,-0.34L0.011,-0.34L0.011,-0.46L0.159,-0.46L0.159,-0.388C0.198,-0.444 0.253,-0.471 0.323,-0.471ZM0.297,-0.121C0.328,-0.121 0.353,-0.131 0.373,-0.152C0.392,-0.173 0.402,-0.199 0.402,-0.231C0.402,-0.262 0.392,-0.288 0.373,-0.308C0.354,-0.329 0.328,-0.339 0.297,-0.339C0.265,-0.339 0.239,-0.329 0.22,-0.308C0.201,-0.288 0.191,-0.262 0.191,-0.231C0.191,-0.199 0.201,-0.173 0.22,-0.152C0.239,-0.131 0.265,-0.121 0.297,-0.121Z" style="fill:white;fill-rule:nonzero;"/>
                </g>
                <g transform="matrix(534.789,0,0,534.789,2277.1,528.015)">
                    <path d="M0.448,-0.058C0.4,-0.012 0.34,0.011 0.269,0.011C0.198,0.011 0.138,-0.012 0.091,-0.058C0.043,-0.104 0.019,-0.161 0.019,-0.23C0.019,-0.299 0.043,-0.356 0.091,-0.402C0.138,-0.448 0.198,-0.471 0.269,-0.471C0.34,-0.471 0.4,-0.448 0.448,-0.402C0.496,-0.356 0.52,-0.299 0.52,-0.23C0.52,-0.161 0.496,-0.104 0.448,-0.058ZM0.27,-0.121C0.302,-0.121 0.328,-0.131 0.347,-0.152C0.366,-0.172 0.376,-0.198 0.376,-0.23C0.376,-0.263 0.366,-0.289 0.347,-0.309C0.328,-0.329 0.302,-0.339 0.27,-0.339C0.239,-0.339 0.213,-0.329 0.193,-0.309C0.173,-0.289 0.163,-0.263 0.163,-0.23C0.163,-0.197 0.173,-0.171 0.193,-0.151C0.213,-0.131 0.239,-0.121 0.27,-0.121Z" style="fill:white;fill-rule:nonzero;"/>
                </g>
                <g transform="matrix(534.789,0,0,534.789,2565.65,528.015)">
                    <path d="M0.211,-0.2C0.211,-0.153 0.23,-0.129 0.269,-0.129L0.285,-0.129L0.285,-0L0.249,-0C0.126,-0 0.064,-0.064 0.064,-0.191L0.064,-0.34L0.013,-0.34L0.013,-0.46L0.032,-0.46C0.06,-0.46 0.073,-0.477 0.073,-0.511L0.073,-0.601L0.211,-0.601L0.211,-0.46L0.284,-0.46L0.284,-0.34L0.211,-0.34L0.211,-0.2Z" style="fill:white;fill-rule:nonzero;"/>
                </g>
            </g>
        </g>
    </g>
</svg>
